HIERARCHY
ROOT Hips
{
  OFFSET -125.086 92.215 135.881
  CHANNELS 6 Xposition Yposition Zposition Zrotation Xrotation Yrotation
  JOINT LeftUpLeg
  {
    OFFSET 8.64259 1.95398 -2.38835
    CHANNELS 3 Zrotation Xrotation Yrotation
    JOINT LeftLeg
    {
      OFFSET 43.7702 0 0
      CHANNELS 3 Zrotation Xrotation Yrotation
      JOINT LeftFoot
      {
        OFFSET 40.6238 0 0
        CHANNELS 3 Zrotation Xrotation Yrotation
        JOINT LeftToeBase
        {
          OFFSET 12.7242 0 0
          CHANNELS 3 Zrotation Xrotation Yrotation
          End Site
          {
            OFFSET 0 0 0
          }
        }
      }
    }
  }
  JOINT RightUpLeg
  {
    OFFSET -8.2249 1.95398 -2.59336
    CHANNELS 3 Zrotation Xrotation Yrotation
    JOINT RightLeg
    {
      OFFSET 43.5653 0 0
      CHANNELS 3 Zrotation Xrotation Yrotation
      JOINT RightFoot
      {
        OFFSET 40.6238 0 0
        CHANNELS 3 Zrotation Xrotation Yrotation
        JOINT RightToeBase
        {
          OFFSET 12.7242 0 0
          CHANNELS 3 Zrotation Xrotation Yrotation
          End Site
          {
            OFFSET 0 0 0
          }
        }
      }
    }
  }
  JOINT Spine
  {
    OFFSET 0.165834 0.87714 6.61349
    CHANNELS 3 Zrotation Xrotation Yrotation
    JOINT Spine1
    {
      OFFSET 7.38963 1.71661e-005 0
      CHANNELS 3 Zrotation Xrotation Yrotation
      JOINT Spine2
      {
        OFFSET 11.9445 1.14441e-005 0
        CHANNELS 3 Zrotation Xrotation Yrotation
        JOINT Spine3
        {
          OFFSET 14.7254 4.19617e-005 0
          CHANNELS 3 Zrotation Xrotation Yrotation
          JOINT Spine4
          {
            OFFSET 10.9679 0 0
            CHANNELS 3 Zrotation Xrotation Yrotation
            JOINT RightShoulder
            {
              OFFSET 2.46616 -1.6653 3.69651
              CHANNELS 3 Zrotation Xrotation Yrotation
              JOINT RightArm
              {
                OFFSET 13.0012 0 0
                CHANNELS 3 Zrotation Xrotation Yrotation
                JOINT RightForeArm
                {
                  OFFSET 28.7848 1.52588e-005 0
                  CHANNELS 3 Zrotation Xrotation Yrotation
                  JOINT RightHand
                  {
                    OFFSET 26.5688 1.52588e-005 0
                    CHANNELS 3 Zrotation Xrotation Yrotation
                    End Site
                    {
                      OFFSET 0 0 0
                    }
                  }
                }
              }
            }
            JOINT LeftShoulder
            {
              OFFSET 2.38034 -1.29275 -3.7523
              CHANNELS 3 Zrotation Xrotation Yrotation
              JOINT LeftArm
              {
                OFFSET 16.3182 6.10352e-005 0
                CHANNELS 3 Zrotation Xrotation Yrotation
                JOINT LeftForeArm
                {
                  OFFSET 27.0901 0 0
                  CHANNELS 3 Zrotation Xrotation Yrotation
                  JOINT LeftHand
                  {
                    OFFSET 24.5451 1.52588e-005 0
                    CHANNELS 3 Zrotation Xrotation Yrotation
                    End Site
                    {
                      OFFSET 0 0 0
                    }
                  }
                }
              }
            }
            JOINT Neck
            {
              OFFSET 5.0226 -0.0266342 0
              CHANNELS 3 Zrotation Xrotation Yrotation
              JOINT Head
              {
                OFFSET 6.69363 2.86102e-005 0
                CHANNELS 3 Zrotation Xrotation Yrotation
                End Site
                {
                  OFFSET 0 0 0
                }
              }
            }
          }
        }
      }
    }
  }
}
MOTION
Frames:	7
Frame Time:	0.0416667
132.352 96.8463 -118.52 103.211 49.6173 82.1228 -179.949 18.2325 89.7441 -52.0805 5.11813 4.29216 56.919 5.23522 3.61493 48.7672 -0.815344 14.8681 175.471 5.4383 92.0641 -33.4766 -3.41094 0.722419 70.8543 -1.27309 12.8894 30.5959 -0.030717 -3.06986 0.064626 8.09751 -90.5182 10.6772 -0.10989 -1.02016 -0.994098 -0.154668 -1.01435 -23.5261 0.201786 -1.00604 -3.51348 0.201766 -1.00604 109.888 -50.4059 -70.1993 28.7566 -2.02688 -9.73033 -4.85023 -28.2645 -22.9234 -11.128 -0.595289 1.07825 -74.6705 -47.001 101.867 -44.6697 -9.90096 -23.8611 9.14229 60.0309 -2.32138 -7.27894 0.0331628 -7.25591 10.6564 0.16408 -13.7166 -25.5671 -0.977304 22.2654 
128.241 96.821 -115.569 103.3 51.3999 81.6066 -178.099 12.6475 91.0055 -61.6524 5.07511 4.70033 57.8093 6.09483 5.40478 50.9817 -0.806516 13.769 174.786 8.78391 90.7407 -33.1322 -3.96822 1.29201 68.4516 -0.305161 12.4259 28.1489 0.595214 -4.75419 -0.166691 7.96226 -90.5341 10.9463 -0.578912 -1.00608 -0.724952 -0.622625 -0.979633 -23.2572 -0.249798 -1.13353 -3.24452 -0.249805 -1.13353 110.655 -51.3065 -69.1632 27.646 0.236648 -8.2532 -2.29037 -30.5965 -16.423 -11.828 -0.685459 1.61054 -74.8016 -46.9019 101.666 -44.7048 -7.0887 -23.6893 12.756 55.8679 -9.61739 -7.91912 0.0673944 -7.69343 9.69628 0.408518 -13.6596 -25.0441 -0.532826 21.0942 
124.003 97.0739 -112.489 102.294 55.0272 83.2697 -176.065 5.27331 95.2412 -57.8634 7.83008 5.98457 59.7124 6.60484 3.88512 54.6646 -0.881181 11.8782 174.708 11.437 90.9766 -29.6307 -2.65583 1.929 63.8567 1.11217 12.1506 28.4072 0.445822 -3.76061 -0.639431 7.73201 -90.6875 11.4004 -1.59323 -1.20922 -0.270099 -1.64489 -1.13794 -22.8053 -1.1562 -1.63211 -2.79266 -1.1562 -1.63211 111.391 -51.9842 -68.159 27.1778 3.62937 -7.0391 -1.74081 -33.2786 -12.1817 -10.7793 -0.683136 2.28476 -75.0596 -46.5088 101.279 -44.9474 -3.34356 -22.9912 14.6363 51.2344 -16.3839 -6.37903 0.0635875 -8.70884 7.39918 0.134359 -12.1622 -23.2305 -0.209604 16.3327 
118.971 97.3039 -109.071 102.225 58.6062 83.6404 -175.822 -1.71638 96.9917 -44.9293 13.0385 8.25248 60.6882 5.69611 -1.24078 53.8538 -1.02696 10.6076 174.91 13.5939 90.3527 -25.179 -3.38131 1.80338 57.0367 2.58759 9.92574 30.8187 0.0966737 -5.20164 -1.05316 7.69966 -90.7457 11.4613 -2.44373 -1.2371 -0.207824 -2.4958 -1.12832 -22.7511 -1.95899 -1.91444 -2.73842 -1.959 -1.91444 111.745 -52.1599 -67.6554 27.6741 5.02872 -6.18376 -1.89931 -31.568 -11.7335 -10.1121 -0.649541 2.38882 -75.7323 -45.5191 100.252 -45.2303 0.767778 -23.6403 16.4336 48.2271 -23.0481 -6.37222 0.0417575 -8.11806 6.48977 -0.727428 -11.8515 -22.5146 -0.756744 14.2714 
112.584 96.7518 -105.21 101.042 59.5089 84.8656 -177.092 -4.92629 95.0679 -33.964 17.6238 9.57604 63.1248 6.70161 0.203028 61.3476 -0.944753 10.7472 175.443 16.1707 88.8922 -19.6563 -2.38519 1.11534 50.4627 4.44273 11.6303 32.784 -0.27332 -5.58712 -1.07432 7.79672 -90.7779 11.2661 -2.50011 -1.30113 -0.403002 -2.55497 -1.18981 -22.9463 -1.99353 -1.99246 -2.93364 -1.99353 -1.99246 111.602 -51.9435 -67.8329 28.1841 4.3954 -7.06148 -2.01427 -30.5739 -12.4626 -10.4045 -0.612731 1.73873 -75.9235 -45.4751 99.9468 -45.3909 3.43518 -27.0087 17.9369 48.2712 -26.15 -5.66828 0.0305691 -8.57696 6.11443 -1.24228 -11.9031 -21.7582 -1.24588 14.5633 
105.685 96.6063 -100.502 104.114 56.7266 79.9337 -174.301 -5.99137 91.5595 -28.0732 19.2744 5.86715 66.5141 9.13565 7.16616 52.8317 -1.46748 6.22698 174.852 16.1495 85.525 -13.9938 -1.42174 0.371409 51.3249 3.23144 14.4679 40.2806 -1.81429 -3.0514 -0.923502 8.32189 -90.3764 10.2265 -2.01205 -0.577433 -1.44294 -2.03549 -0.488294 -23.9872 -1.74546 -1.15558 -3.97452 -1.74544 -1.15558 111.239 -52.32 -68.4437 29.0352 3.05242 -9.9778 -2.58148 -30.241 -14.1418 -11.1085 -0.627736 1.4441 -75.9927 -45.3601 99.8383 -44.3688 4.29244 -29.7197 17.765 46.9325 -26.81 -4.53556 -0.00817649 -8.72484 6.52192 -1.13868 -12.8794 -21.1505 -1.03517 15.8874 
99.46 96.3298 -96.2441 104.548 54.9251 78.2703 -174.998 -3.30531 88.4624 -26.1447 18.5399 3.64223 67.076 9.57693 11.7 46.9665 -1.44416 2.43749 174.143 17.4093 83.899 -13.7571 -0.818286 0.310822 52.2196 2.28752 17.3179 41.6869 -2.05484 -1.89134 -0.957726 8.50947 -90.0465 9.85533 -1.93005 0.0621004 -1.81421 -1.92544 0.147016 -24.3602 -1.85945 -0.521034 -4.34754 -1.85944 -0.521031 110.601 -51.8331 -69.3287 30.8035 0.842139 -10.16 -4.56828 -29.4679 -19.2415 -11.3439 -0.607137 1.07953 -76.4856 -44.5823 99.0668 -43.4371 2.28724 -28.9614 16.7602 47.6129 -24.261 -4.79655 -0.000944642 -8.62897 6.06522 -0.79436 -12.7539 -21.8113 -0.920133 16.2416 
